<svg width="24" height="24" viewBox="0 0 24 24" fill="none" xmlns="http://www.w3.org/2000/svg">
<path d="M21.6702 6.95039C21.0302 4.78039 19.2202 2.97039 17.0502 2.33039C15.4002 1.85039 14.2602 1.89039 13.4702 2.48039C12.5202 3.19039 12.4102 4.47039 12.4102 5.38039V7.87039C12.4102 10.3304 13.5302 11.5804 15.7302 11.5804H18.6002C19.5002 11.5804 20.7902 11.4704 21.5002 10.5204C22.1102 9.74039 22.1602 8.60039 21.6702 6.95039Z" fill="white"/>
<path d="M18.9104 13.3601C18.6504 13.0601 18.2704 12.8902 17.8804 12.8902H14.3004C12.5404 12.8902 11.1104 11.4601 11.1104 9.70015V6.12015C11.1104 5.73015 10.9404 5.35015 10.6404 5.09015C10.3504 4.83015 9.95039 4.71015 9.57039 4.76015C7.22039 5.06015 5.06039 6.35015 3.65039 8.29015C2.23039 10.2401 1.71039 12.6201 2.16039 15.0001C2.81039 18.4401 5.56039 21.1902 9.01039 21.8402C9.56039 21.9502 10.1104 22.0002 10.6604 22.0002C12.4704 22.0002 14.2204 21.4401 15.7104 20.3502C17.6504 18.9402 18.9404 16.7801 19.2404 14.4302C19.2904 14.0401 19.1704 13.6501 18.9104 13.3601Z" fill="white"/>
</svg>
