<svg width="28" height="27" viewBox="0 0 28 27" fill="none" xmlns="http://www.w3.org/2000/svg">
<ellipse cx="14" cy="13.5" rx="14" ry="13.5" fill="white"/>
<path d="M13.415 16.241C13.051 16.241 12.855 16.017 12.827 15.569L12.407 6.161C12.393 5.825 12.47 5.559 12.638 5.363C12.82 5.153 13.079 5.048 13.415 5.048C13.737 5.048 13.982 5.153 14.15 5.363C14.318 5.559 14.395 5.825 14.381 6.161L13.961 15.569C13.947 16.017 13.765 16.241 13.415 16.241ZM13.415 20.084C13.065 20.084 12.785 19.979 12.575 19.769C12.365 19.545 12.26 19.265 12.26 18.929C12.26 18.593 12.365 18.32 12.575 18.11C12.785 17.886 13.065 17.774 13.415 17.774C13.765 17.774 14.038 17.886 14.234 18.11C14.444 18.32 14.549 18.593 14.549 18.929C14.549 19.265 14.444 19.545 14.234 19.769C14.038 19.979 13.765 20.084 13.415 20.084Z" fill="#FFA741"/>
</svg>
