<svg width="28" height="27" viewBox="0 0 28 27" fill="none" xmlns="http://www.w3.org/2000/svg">
<ellipse cx="14" cy="13.5" rx="14" ry="13.5" fill="#FFA741"/>
<path d="M13.625 15.737C13.079 15.737 12.785 15.415 12.743 14.771L12.113 6.749C12.071 6.231 12.183 5.818 12.449 5.51C12.715 5.188 13.107 5.027 13.625 5.027C14.129 5.027 14.507 5.188 14.759 5.51C15.025 5.818 15.137 6.231 15.095 6.749L14.465 14.771C14.423 15.415 14.143 15.737 13.625 15.737ZM13.625 20.105C13.149 20.105 12.764 19.958 12.47 19.664C12.19 19.37 12.05 18.992 12.05 18.53C12.05 18.082 12.19 17.718 12.47 17.438C12.764 17.144 13.149 16.997 13.625 16.997C14.115 16.997 14.493 17.144 14.759 17.438C15.039 17.718 15.179 18.082 15.179 18.53C15.179 18.992 15.039 19.37 14.759 19.664C14.493 19.958 14.115 20.105 13.625 20.105Z" fill="white"/>
</svg>
