<svg width="72" height="73" viewBox="0 0 72 73" fill="none" xmlns="http://www.w3.org/2000/svg">
<ellipse cx="36" cy="36.5" rx="36" ry="36.5" fill="#297AB5"/>
<path d="M16.384 45.192C15.36 45.192 14.848 44.664 14.848 43.608V29.64C14.848 28.6 15.368 28.08 16.408 28.08H22.192C24.048 28.08 25.48 28.544 26.488 29.472C27.496 30.4 28 31.696 28 33.36C28 35.024 27.496 36.328 26.488 37.272C25.48 38.2 24.048 38.664 22.192 38.664H17.92V43.608C17.92 44.664 17.408 45.192 16.384 45.192ZM17.92 36.24H21.712C23.92 36.24 25.024 35.28 25.024 33.36C25.024 31.456 23.92 30.504 21.712 30.504H17.92V36.24ZM31.6863 45C30.5983 45 30.0543 44.456 30.0543 43.368V29.712C30.0543 28.624 30.5983 28.08 31.6863 28.08H36.3423C39.1743 28.08 41.3583 28.808 42.8943 30.264C44.4463 31.72 45.2223 33.808 45.2223 36.528C45.2223 39.232 44.4463 41.32 42.8943 42.792C41.3583 44.264 39.1743 45 36.3423 45H31.6863ZM33.1263 42.456H36.1503C40.0543 42.456 42.0063 40.48 42.0063 36.528C42.0063 32.592 40.0543 30.624 36.1503 30.624H33.1263V42.456ZM49.4695 45.192C48.4135 45.192 47.8855 44.648 47.8855 43.56V29.712C47.8855 28.624 48.4295 28.08 49.5175 28.08H57.8935C58.7255 28.08 59.1415 28.48 59.1415 29.28C59.1415 30.112 58.7255 30.528 57.8935 30.528H50.9575V35.304H57.3895C58.2215 35.304 58.6375 35.704 58.6375 36.504C58.6375 37.336 58.2215 37.752 57.3895 37.752H50.9575V43.56C50.9575 44.648 50.4615 45.192 49.4695 45.192Z" fill="white"/>
</svg>
